<?xml version="1.0" encoding="UTF-8"?>
<svg xmlns="http://www.w3.org/2000/svg" version="1.1" width="300" height="300" viewBox="0 0 300 300"><rect x="0" y="0" width="300" height="300" fill="#ffffff"/><g transform="scale(12)"><g transform="translate(0,0)"><path fill-rule="evenodd" d="M9 0.25L9 0.75A0.25 0.25 0 0 0 9.25 1L10.75 1A0.25 0.25 0 0 1 11 1.25L11 1.75A0.25 0.25 0 0 1 10.75 2L9.25 2A0.25 0.25 0 0 0 9 2.25L9 2.75A0.25 0.25 0 0 1 8.75 3L8.25 3A0.25 0.25 0 0 0 8 3.25L8 4.75A0.25 0.25 0 0 0 8.25 5L8.75 5A0.25 0.25 0 0 1 9 5.25L9 5.75A0.25 0.25 0 0 1 8.75 6L8.25 6A0.25 0.25 0 0 0 8 6.25L8 6.75A0.25 0.25 0 0 0 8.25 7L8.75 7A0.25 0.25 0 0 1 9 7.25L9 8.75A0.25 0.25 0 0 0 9.25 9L9.75 9A0.25 0.25 0 0 1 10 9.25L10 9.75A0.25 0.25 0 0 1 9.75 10L9.25 10A0.25 0.25 0 0 0 9 10.25L9 10.75A0.25 0.25 0 0 0 9.25 11L9.75 11A0.25 0.25 0 0 1 10 11.25L10 11.75A0.25 0.25 0 0 1 9.75 12L9.25 12A0.25 0.25 0 0 0 9 12.25L9 13.75A0.25 0.25 0 0 1 8.75 14L5.25 14A0.25 0.25 0 0 1 5 13.75L5 12.25A0.25 0.25 0 0 0 4.75 12L4.25 12A0.25 0.25 0 0 1 4 11.75L4 11.25A0.25 0.25 0 0 1 4.25 11L7.75 11A0.25 0.25 0 0 0 8 10.75L8 8.25A0.25 0.25 0 0 0 7.75 8L5.25 8A0.25 0.25 0 0 0 5 8.25L5 8.75A0.25 0.25 0 0 0 5.25 9L6.75 9A0.25 0.25 0 0 1 7 9.25L7 9.75A0.25 0.25 0 0 1 6.75 10L1.25 10A0.25 0.25 0 0 1 1 9.75L1 9.25A0.25 0.25 0 0 1 1.25 9L1.75 9A0.25 0.25 0 0 0 2 8.75L2 8.25A0.25 0.25 0 0 0 1.75 8L0.25 8A0.25 0.25 0 0 0 0 8.25L0 11.75A0.25 0.25 0 0 0 0.25 12L0.75 12A0.25 0.25 0 0 0 1 11.75L1 11.25A0.25 0.25 0 0 1 1.25 11L1.75 11A0.25 0.25 0 0 1 2 11.25L2 11.75A0.25 0.25 0 0 0 2.25 12L3.75 12A0.25 0.25 0 0 1 4 12.25L4 13.75A0.25 0.25 0 0 1 3.75 14L2.25 14A0.25 0.25 0 0 1 2 13.75L2 13.25A0.25 0.25 0 0 0 1.75 13L0.25 13A0.25 0.25 0 0 0 0 13.25L0 16.75A0.25 0.25 0 0 0 0.25 17L0.75 17A0.25 0.25 0 0 0 1 16.75L1 14.25A0.25 0.25 0 0 1 1.25 14L1.75 14A0.25 0.25 0 0 1 2 14.25L2 15.75A0.25 0.25 0 0 0 2.25 16L2.75 16A0.25 0.25 0 0 1 3 16.25L3 16.75A0.25 0.25 0 0 0 3.25 17L6.75 17A0.25 0.25 0 0 0 7 16.75L7 16.25A0.25 0.25 0 0 1 7.25 16L7.75 16A0.25 0.25 0 0 0 8 15.75L8 15.25A0.25 0.25 0 0 1 8.25 15L8.75 15A0.25 0.25 0 0 1 9 15.25L9 15.75A0.25 0.25 0 0 0 9.25 16L9.75 16A0.25 0.25 0 0 1 10 16.25L10 16.75A0.25 0.25 0 0 1 9.75 17L8.25 17A0.25 0.25 0 0 0 8 17.25L8 19.75A0.25 0.25 0 0 0 8.25 20L8.75 20A0.25 0.25 0 0 0 9 19.75L9 18.25A0.25 0.25 0 0 1 9.25 18L9.75 18A0.25 0.25 0 0 1 10 18.25L10 20.75A0.25 0.25 0 0 1 9.75 21L9.25 21A0.25 0.25 0 0 0 9 21.25L9 22.75A0.25 0.25 0 0 1 8.75 23L8.25 23A0.25 0.25 0 0 0 8 23.25L8 24.75A0.25 0.25 0 0 0 8.25 25L9.75 25A0.25 0.25 0 0 0 10 24.75L10 22.25A0.25 0.25 0 0 1 10.25 22L10.75 22A0.25 0.25 0 0 0 11 21.75L11 21.25A0.25 0.25 0 0 1 11.25 21L11.75 21A0.25 0.25 0 0 1 12 21.25L12 21.75A0.25 0.25 0 0 0 12.25 22L12.75 22A0.25 0.25 0 0 1 13 22.25L13 22.75A0.25 0.25 0 0 0 13.25 23L14.75 23A0.25 0.25 0 0 0 15 22.75L15 22.25A0.25 0.25 0 0 1 15.25 22L15.75 22A0.25 0.25 0 0 1 16 22.25L16 24.75A0.25 0.25 0 0 0 16.25 25L17.75 25A0.25 0.25 0 0 0 18 24.75L18 24.25A0.25 0.25 0 0 1 18.25 24L20.75 24A0.25 0.25 0 0 1 21 24.25L21 24.75A0.25 0.25 0 0 0 21.25 25L21.75 25A0.25 0.25 0 0 0 22 24.75L22 24.25A0.25 0.25 0 0 0 21.75 24L21.25 24A0.25 0.25 0 0 1 21 23.75L21 23.25A0.25 0.25 0 0 0 20.75 23L20.25 23A0.25 0.25 0 0 1 20 22.75L20 21.25A0.25 0.25 0 0 1 20.25 21L20.75 21A0.25 0.25 0 0 1 21 21.25L21 21.75A0.25 0.25 0 0 0 21.25 22L21.75 22A0.25 0.25 0 0 1 22 22.25L22 22.75A0.25 0.25 0 0 0 22.25 23L22.75 23A0.25 0.25 0 0 0 23 22.75L23 22.25A0.25 0.25 0 0 1 23.25 22L23.75 22A0.25 0.25 0 0 1 24 22.25L24 24.75A0.25 0.25 0 0 0 24.25 25L24.75 25A0.25 0.25 0 0 0 25 24.75L25 21.25A0.25 0.25 0 0 0 24.75 21L23.25 21A0.25 0.25 0 0 1 23 20.75L23 20.25A0.25 0.25 0 0 0 22.75 20L21.25 20A0.25 0.25 0 0 1 21 19.75L21 19.25A0.25 0.25 0 0 1 21.25 19L21.75 19A0.25 0.25 0 0 0 22 18.75L22 18.25A0.25 0.25 0 0 1 22.25 18L22.75 18A0.25 0.25 0 0 0 23 17.75L23 15.25A0.25 0.25 0 0 1 23.25 15L23.75 15A0.25 0.25 0 0 1 24 15.25L24 15.75A0.25 0.25 0 0 0 24.25 16L24.75 16A0.25 0.25 0 0 0 25 15.75L25 14.25A0.25 0.25 0 0 0 24.75 14L24.25 14A0.25 0.25 0 0 1 24 13.75L24 13.25A0.25 0.25 0 0 1 24.25 13L24.75 13A0.25 0.25 0 0 0 25 12.75L25 10.25A0.25 0.25 0 0 0 24.75 10L24.25 10A0.25 0.25 0 0 1 24 9.75L24 9.25A0.25 0.25 0 0 0 23.75 9L22.25 9A0.25 0.25 0 0 1 22 8.75L22 8.25A0.25 0.25 0 0 0 21.75 8L20.25 8A0.25 0.25 0 0 0 20 8.25L20 8.75A0.25 0.25 0 0 1 19.75 9L19.25 9A0.25 0.25 0 0 0 19 9.25L19 9.75A0.25 0.25 0 0 1 18.75 10L18.25 10A0.25 0.25 0 0 1 18 9.75L18 9.25A0.25 0.25 0 0 0 17.75 9L17.25 9A0.25 0.25 0 0 0 17 9.25L17 9.75A0.25 0.25 0 0 0 17.25 10L17.75 10A0.25 0.25 0 0 1 18 10.25L18 10.75A0.25 0.25 0 0 1 17.75 11L16.25 11A0.25 0.25 0 0 1 16 10.75L16 9.25A0.25 0.25 0 0 0 15.75 9L14.25 9A0.25 0.25 0 0 1 14 8.75L14 8.25A0.25 0.25 0 0 0 13.75 8L13.25 8A0.25 0.25 0 0 1 13 7.75L13 6.25A0.25 0.25 0 0 0 12.75 6L12.25 6A0.25 0.25 0 0 0 12 6.25L12 8.75A0.25 0.25 0 0 0 12.25 9L12.75 9A0.25 0.25 0 0 1 13 9.25L13 9.75A0.25 0.25 0 0 1 12.75 10L11.25 10A0.25 0.25 0 0 1 11 9.75L11 8.25A0.25 0.25 0 0 0 10.75 8L10.25 8A0.25 0.25 0 0 1 10 7.75L10 7.25A0.25 0.25 0 0 1 10.25 7L10.75 7A0.25 0.25 0 0 0 11 6.75L11 4.25A0.25 0.25 0 0 1 11.25 4L11.75 4A0.25 0.25 0 0 1 12 4.25L12 4.75A0.25 0.25 0 0 0 12.25 5L13.75 5A0.25 0.25 0 0 1 14 5.25L14 6.75A0.25 0.25 0 0 0 14.25 7L14.75 7A0.25 0.25 0 0 1 15 7.25L15 7.75A0.25 0.25 0 0 0 15.25 8L16.75 8A0.25 0.25 0 0 0 17 7.75L17 3.25A0.25 0.25 0 0 0 16.75 3L16.25 3A0.25 0.25 0 0 0 16 3.25L16 6.75A0.25 0.25 0 0 1 15.75 7L15.25 7A0.25 0.25 0 0 1 15 6.75L15 5.25A0.25 0.25 0 0 0 14.75 5L14.25 5A0.25 0.25 0 0 1 14 4.75L14 3.25A0.25 0.25 0 0 1 14.25 3L14.75 3A0.25 0.25 0 0 0 15 2.75L15 2.25A0.25 0.25 0 0 0 14.75 2L14.25 2A0.25 0.25 0 0 0 14 2.25L14 2.75A0.25 0.25 0 0 1 13.75 3L13.25 3A0.25 0.25 0 0 0 13 3.25L13 3.75A0.25 0.25 0 0 1 12.75 4L12.25 4A0.25 0.25 0 0 1 12 3.75L12 2.25A0.25 0.25 0 0 1 12.25 2L12.75 2A0.25 0.25 0 0 0 13 1.75L13 1.25A0.25 0.25 0 0 1 13.25 1L14.75 1A0.25 0.25 0 0 0 15 0.75L15 0.25A0.25 0.25 0 0 0 14.75 0L13.25 0A0.25 0.25 0 0 0 13 0.25L13 0.75A0.25 0.25 0 0 1 12.75 1L12.25 1A0.25 0.25 0 0 1 12 0.75L12 0.25A0.25 0.25 0 0 0 11.75 0L9.25 0A0.25 0.25 0 0 0 9 0.25ZM16 1.25L16 1.75A0.25 0.25 0 0 0 16.25 2L16.75 2A0.25 0.25 0 0 0 17 1.75L17 1.25A0.25 0.25 0 0 0 16.75 1L16.25 1A0.25 0.25 0 0 0 16 1.25ZM9 3.25L9 4.75A0.25 0.25 0 0 0 9.25 5L9.75 5A0.25 0.25 0 0 0 10 4.75L10 3.25A0.25 0.25 0 0 0 9.75 3L9.25 3A0.25 0.25 0 0 0 9 3.25ZM9 6.25L9 6.75A0.25 0.25 0 0 0 9.25 7L9.75 7A0.25 0.25 0 0 0 10 6.75L10 6.25A0.25 0.25 0 0 0 9.75 6L9.25 6A0.25 0.25 0 0 0 9 6.25ZM10 10.25L10 10.75A0.25 0.25 0 0 0 10.25 11L10.75 11A0.25 0.25 0 0 0 11 10.75L11 10.25A0.25 0.25 0 0 0 10.75 10L10.25 10A0.25 0.25 0 0 0 10 10.25ZM20 10.25L20 13.75A0.25 0.25 0 0 1 19.75 14L19.25 14A0.25 0.25 0 0 1 19 13.75L19 13.25A0.25 0.25 0 0 0 18.75 13L18.25 13A0.25 0.25 0 0 1 18 12.75L18 12.25A0.25 0.25 0 0 1 18.25 12L18.75 12A0.25 0.25 0 0 0 19 11.75L19 11.25A0.25 0.25 0 0 0 18.75 11L18.25 11A0.25 0.25 0 0 0 18 11.25L18 11.75A0.25 0.25 0 0 1 17.75 12L17.25 12A0.25 0.25 0 0 0 17 12.25L17 12.75A0.25 0.25 0 0 0 17.25 13L17.75 13A0.25 0.25 0 0 1 18 13.25L18 13.75A0.25 0.25 0 0 0 18.25 14L18.75 14A0.25 0.25 0 0 1 19 14.25L19 15.75A0.25 0.25 0 0 0 19.25 16L19.75 16A0.25 0.25 0 0 0 20 15.75L20 14.25A0.25 0.25 0 0 1 20.25 14L21.75 14A0.25 0.25 0 0 1 22 14.25L22 14.75A0.25 0.25 0 0 1 21.75 15L21.25 15A0.25 0.25 0 0 0 21 15.25L21 17.75A0.25 0.25 0 0 0 21.25 18L21.75 18A0.25 0.25 0 0 0 22 17.75L22 15.25A0.25 0.25 0 0 1 22.25 15L22.75 15A0.25 0.25 0 0 0 23 14.75L23 13.25A0.25 0.25 0 0 1 23.25 13L23.75 13A0.25 0.25 0 0 0 24 12.75L24 11.25A0.25 0.25 0 0 0 23.75 11L23.25 11A0.25 0.25 0 0 1 23 10.75L23 10.25A0.25 0.25 0 0 0 22.75 10L22.25 10A0.25 0.25 0 0 0 22 10.25L22 11.75A0.25 0.25 0 0 1 21.75 12L21.25 12A0.25 0.25 0 0 1 21 11.75L21 10.25A0.25 0.25 0 0 0 20.75 10L20.25 10A0.25 0.25 0 0 0 20 10.25ZM12 11.25L12 11.75A0.25 0.25 0 0 1 11.75 12L11.25 12A0.25 0.25 0 0 0 11 12.25L11 13.75A0.25 0.25 0 0 1 10.75 14L10.25 14A0.25 0.25 0 0 0 10 14.25L10 14.75A0.25 0.25 0 0 0 10.25 15L10.75 15A0.25 0.25 0 0 1 11 15.25L11 18.75A0.25 0.25 0 0 0 11.25 19L11.75 19A0.25 0.25 0 0 1 12 19.25L12 19.75A0.25 0.25 0 0 0 12.25 20L13.75 20A0.25 0.25 0 0 0 14 19.75L14 19.25A0.25 0.25 0 0 1 14.25 19L14.75 19A0.25 0.25 0 0 1 15 19.25L15 19.75A0.25 0.25 0 0 0 15.25 20L15.75 20A0.25 0.25 0 0 0 16 19.75L16 16.25A0.25 0.25 0 0 1 16.25 16L17.75 16A0.25 0.25 0 0 0 18 15.75L18 15.25A0.25 0.25 0 0 0 17.75 15L17.25 15A0.25 0.25 0 0 1 17 14.75L17 14.25A0.25 0.25 0 0 0 16.75 14L16.25 14A0.25 0.25 0 0 0 16 14.25L16 15.75A0.25 0.25 0 0 1 15.75 16L15.25 16A0.25 0.25 0 0 1 15 15.75L15 15.25A0.25 0.25 0 0 0 14.75 15L14.25 15A0.25 0.25 0 0 1 14 14.75L14 14.25A0.25 0.25 0 0 1 14.25 14L14.75 14A0.25 0.25 0 0 0 15 13.75L15 13.25A0.25 0.25 0 0 1 15.25 13L15.75 13A0.25 0.25 0 0 0 16 12.75L16 11.25A0.25 0.25 0 0 0 15.75 11L15.25 11A0.25 0.25 0 0 0 15 11.25L15 11.75A0.25 0.25 0 0 1 14.75 12L14.25 12A0.25 0.25 0 0 1 14 11.75L14 11.25A0.25 0.25 0 0 0 13.75 11L12.25 11A0.25 0.25 0 0 0 12 11.25ZM6 12.25L6 12.75A0.25 0.25 0 0 0 6.25 13L6.75 13A0.25 0.25 0 0 0 7 12.75L7 12.25A0.25 0.25 0 0 0 6.75 12L6.25 12A0.25 0.25 0 0 0 6 12.25ZM12 13.25L12 13.75A0.25 0.25 0 0 0 12.25 14L13.75 14A0.25 0.25 0 0 0 14 13.75L14 13.25A0.25 0.25 0 0 0 13.75 13L12.25 13A0.25 0.25 0 0 0 12 13.25ZM4 14.25L4 14.75A0.25 0.25 0 0 1 3.75 15L3.25 15A0.25 0.25 0 0 0 3 15.25L3 15.75A0.25 0.25 0 0 0 3.25 16L3.75 16A0.25 0.25 0 0 0 4 15.75L4 15.25A0.25 0.25 0 0 1 4.25 15L4.75 15A0.25 0.25 0 0 1 5 15.25L5 15.75A0.25 0.25 0 0 0 5.25 16L6.75 16A0.25 0.25 0 0 0 7 15.75L7 15.25A0.25 0.25 0 0 0 6.75 15L5.25 15A0.25 0.25 0 0 1 5 14.75L5 14.25A0.25 0.25 0 0 0 4.75 14L4.25 14A0.25 0.25 0 0 0 4 14.25ZM12 15.25L12 16.75A0.25 0.25 0 0 0 12.25 17L14.75 17A0.25 0.25 0 0 0 15 16.75L15 16.25A0.25 0.25 0 0 0 14.75 16L13.25 16A0.25 0.25 0 0 1 13 15.75L13 15.25A0.25 0.25 0 0 0 12.75 15L12.25 15A0.25 0.25 0 0 0 12 15.25ZM17 17.25L17 19.75A0.25 0.25 0 0 0 17.25 20L19.75 20A0.25 0.25 0 0 0 20 19.75L20 17.25A0.25 0.25 0 0 0 19.75 17L17.25 17A0.25 0.25 0 0 0 17 17.25ZM12 18.25L12 18.75A0.25 0.25 0 0 0 12.25 19L13.75 19A0.25 0.25 0 0 0 14 18.75L14 18.25A0.25 0.25 0 0 0 13.75 18L12.25 18A0.25 0.25 0 0 0 12 18.25ZM18 18.25L18 18.75A0.25 0.25 0 0 0 18.25 19L18.75 19A0.25 0.25 0 0 0 19 18.75L19 18.25A0.25 0.25 0 0 0 18.75 18L18.25 18A0.25 0.25 0 0 0 18 18.25ZM24 18.25L24 19.75A0.25 0.25 0 0 0 24.25 20L24.75 20A0.25 0.25 0 0 0 25 19.75L25 18.25A0.25 0.25 0 0 0 24.75 18L24.25 18A0.25 0.25 0 0 0 24 18.25ZM16 21.25L16 21.75A0.25 0.25 0 0 0 16.25 22L16.75 22A0.25 0.25 0 0 0 17 21.75L17 21.25A0.25 0.25 0 0 0 16.75 21L16.25 21A0.25 0.25 0 0 0 16 21.25ZM22 21.25L22 21.75A0.25 0.25 0 0 0 22.25 22L22.75 22A0.25 0.25 0 0 0 23 21.75L23 21.25A0.25 0.25 0 0 0 22.75 21L22.25 21A0.25 0.25 0 0 0 22 21.25ZM18 22.25L18 22.75A0.25 0.25 0 0 1 17.75 23L17.25 23A0.25 0.25 0 0 0 17 23.25L17 23.75A0.25 0.25 0 0 0 17.25 24L17.75 24A0.25 0.25 0 0 0 18 23.75L18 23.25A0.25 0.25 0 0 1 18.25 23L18.75 23A0.25 0.25 0 0 0 19 22.75L19 22.25A0.25 0.25 0 0 0 18.75 22L18.25 22A0.25 0.25 0 0 0 18 22.25ZM11 24.25L11 24.75A0.25 0.25 0 0 0 11.25 25L11.75 25A0.25 0.25 0 0 0 12 24.75L12 24.25A0.25 0.25 0 0 0 11.75 24L11.25 24A0.25 0.25 0 0 0 11 24.25ZM0 0.25L0 6.75A0.25 0.25 0 0 0 0.25 7L6.75 7A0.25 0.25 0 0 0 7 6.75L7 0.25A0.25 0.25 0 0 0 6.75 0L0.25 0A0.25 0.25 0 0 0 0 0.25ZM1 1.25L1 5.75A0.25 0.25 0 0 0 1.25 6L5.75 6A0.25 0.25 0 0 0 6 5.75L6 1.25A0.25 0.25 0 0 0 5.75 1L1.25 1A0.25 0.25 0 0 0 1 1.25ZM2 2.25L2 4.75A0.25 0.25 0 0 0 2.25 5L4.75 5A0.25 0.25 0 0 0 5 4.75L5 2.25A0.25 0.25 0 0 0 4.75 2L2.25 2A0.25 0.25 0 0 0 2 2.25ZM18 0.25L18 6.75A0.25 0.25 0 0 0 18.25 7L24.75 7A0.25 0.25 0 0 0 25 6.75L25 0.25A0.25 0.25 0 0 0 24.75 0L18.25 0A0.25 0.25 0 0 0 18 0.25ZM19 1.25L19 5.75A0.25 0.25 0 0 0 19.25 6L23.75 6A0.25 0.25 0 0 0 24 5.75L24 1.25A0.25 0.25 0 0 0 23.75 1L19.25 1A0.25 0.25 0 0 0 19 1.25ZM20 2.25L20 4.75A0.25 0.25 0 0 0 20.25 5L22.75 5A0.25 0.25 0 0 0 23 4.75L23 2.25A0.25 0.25 0 0 0 22.75 2L20.25 2A0.25 0.25 0 0 0 20 2.25ZM0 18.25L0 24.75A0.25 0.25 0 0 0 0.25 25L6.75 25A0.25 0.25 0 0 0 7 24.75L7 18.25A0.25 0.25 0 0 0 6.75 18L0.25 18A0.25 0.25 0 0 0 0 18.25ZM1 19.25L1 23.75A0.25 0.25 0 0 0 1.25 24L5.75 24A0.25 0.25 0 0 0 6 23.75L6 19.25A0.25 0.25 0 0 0 5.75 19L1.25 19A0.25 0.25 0 0 0 1 19.25ZM2 20.25L2 22.75A0.25 0.25 0 0 0 2.25 23L4.75 23A0.25 0.25 0 0 0 5 22.75L5 20.25A0.25 0.25 0 0 0 4.75 20L2.25 20A0.25 0.25 0 0 0 2 20.25Z" fill="#000000"/></g></g></svg>
