<svg xmlns="http://www.w3.org/2000/svg" viewBox="0 0 200 200" width="200" height="200">
  <rect width="200" height="200" rx="20" fill="#E8F5E9"/>
  <!-- Bowl -->
  <ellipse cx="100" cy="135" rx="65" ry="20" fill="#8D6E63"/>
  <path d="M35 120 Q35 155 100 155 Q165 155 165 120" fill="#A1887F"/>
  <ellipse cx="100" cy="120" rx="65" ry="20" fill="#BCAAA4"/>
  <ellipse cx="100" cy="118" rx="60" ry="17" fill="#F5F5F5"/>
  <!-- Lettuce base -->
  <ellipse cx="100" cy="110" rx="50" ry="20" fill="#81C784"/>
  <ellipse cx="85" cy="105" rx="25" ry="12" fill="#66BB6A" transform="rotate(-10 85 105)"/>
  <ellipse cx="115" cy="108" rx="22" ry="12" fill="#4CAF50" transform="rotate(15 115 108)"/>
  <!-- Tomato slices -->
  <circle cx="80" cy="100" r="12" fill="#EF5350"/>
  <circle cx="80" cy="100" r="8" fill="#E53935"/>
  <circle cx="80" cy="100" r="3" fill="#FFCDD2"/>
  <circle cx="115" cy="95" r="10" fill="#EF5350"/>
  <circle cx="115" cy="95" r="7" fill="#E53935"/>
  <circle cx="115" cy="95" r="2.5" fill="#FFCDD2"/>
  <!-- Cucumber slices -->
  <circle cx="95" cy="92" r="8" fill="#A5D6A7"/>
  <circle cx="95" cy="92" r="5" fill="#C8E6C9"/>
  <circle cx="130" cy="105" r="7" fill="#A5D6A7"/>
  <circle cx="130" cy="105" r="4" fill="#C8E6C9"/>
  <!-- Egg slice -->
  <ellipse cx="70" cy="110" rx="10" ry="8" fill="#FFF9C4"/>
  <circle cx="70" cy="110" r="5" fill="#FFD54F"/>
  <!-- Carrot shreds -->
  <rect x="90" y="98" width="15" height="3" rx="1.5" fill="#FF9800" transform="rotate(20 97 99)"/>
  <rect x="105" y="102" width="12" height="3" rx="1.5" fill="#FFB74D" transform="rotate(-15 111 103)"/>
  <rect x="75" y="95" width="10" height="3" rx="1.5" fill="#FF9800" transform="rotate(35 80 96)"/>
  <!-- Red onion rings -->
  <ellipse cx="105" cy="88" rx="7" ry="5" fill="none" stroke="#9C27B0" stroke-width="2" opacity="0.6"/>
</svg>